<svg xmlns="http://www.w3.org/2000/svg" xmlns:xlink="http://www.w3.org/1999/xlink" version="1.1" width="256" height="256" viewBox="0 0 256 256" xml:space="preserve">
<g style="stroke: none; stroke-width: 0; stroke-dasharray: none; stroke-linecap: butt; stroke-linejoin: miter; stroke-miterlimit: 10; fill: none; fill-rule: nonzero; opacity: 1;" transform="translate(1.4065934065934016 1.4065934065934016) scale(2.81 2.81)">
	<path d="M 23.697 71.586 h 39.898 H 75.51 c 1.657 0 3 -1.343 3 -3 V 3 c 0 -1.657 -1.343 -3 -3 -3 H 23.833 C 17.027 0 11.49 5.537 11.49 12.343 v 65.45 C 11.49 84.524 16.966 90 23.697 90 H 75.51 c 1.657 0 3 -1.343 3 -3 v -9.198 c 0 -1.657 -1.343 -3 -3 -3 s -3 1.343 -3 3 V 84 H 23.697 c -3.422 0 -6.207 -2.784 -6.207 -6.207 S 20.275 71.586 23.697 71.586 z M 27.752 20.122 h 34.496 c 1.657 0 3 1.343 3 3 s -1.343 3 -3 3 H 27.752 c -1.657 0 -3 -1.343 -3 -3 S 26.095 20.122 27.752 20.122 z" style="stroke: none; stroke-width: 1; stroke-dasharray: none; stroke-linecap: butt; stroke-linejoin: miter; stroke-miterlimit: 10; fill: rgb(255,92,138); fill-rule: nonzero; opacity: 1;" transform=" matrix(1 0 0 1 0 0) " stroke-linecap="round"/>
</g>
</svg>