<svg xmlns="http://www.w3.org/2000/svg" xmlns:xlink="http://www.w3.org/1999/xlink" version="1.1" width="256" height="256" viewBox="0 0 256 256" xml:space="preserve">
<g style="stroke: none; stroke-width: 0; stroke-dasharray: none; stroke-linecap: butt; stroke-linejoin: miter; stroke-miterlimit: 10; fill: none; fill-rule: nonzero; opacity: 1;" transform="translate(1.4065934065934016 1.4065934065934016) scale(2.81 2.81)">
	<path d="M 31.67 58.799 l 42.333 -42.333 c 1.059 -1.059 1.059 -2.776 0 -3.835 L 62.166 0.794 c -1.059 -1.059 -2.776 -1.059 -3.835 0 L 15.998 43.127 c -1.059 1.059 -1.059 2.776 0 3.835 l 11.837 11.837 C 28.893 59.858 30.61 59.858 31.67 58.799 z" style="stroke: none; stroke-width: 1; stroke-dasharray: none; stroke-linecap: butt; stroke-linejoin: miter; stroke-miterlimit: 10; fill: rgb(184,12,9); fill-rule: nonzero; opacity: 1;" transform=" matrix(1 0 0 1 0 0) " stroke-linecap="round"/>
	<path d="M 31.67 31.201 l 42.333 42.333 c 1.059 1.059 1.059 2.776 0 3.835 L 62.166 89.206 c -1.059 1.059 -2.776 1.059 -3.835 0 L 15.998 46.873 c -1.059 -1.059 -1.059 -2.776 0 -3.835 l 11.837 -11.837 C 28.893 30.142 30.61 30.142 31.67 31.201 z" style="stroke: none; stroke-width: 1; stroke-dasharray: none; stroke-linecap: butt; stroke-linejoin: miter; stroke-miterlimit: 10; fill: rgb(184,12,9); fill-rule: nonzero; opacity: 1;" transform=" matrix(1 0 0 1 0 0) " stroke-linecap="round"/>
</g>
</svg>