<svg xmlns="http://www.w3.org/2000/svg" xmlns:xlink="http://www.w3.org/1999/xlink" version="1.1" width="256" height="256" viewBox="0 0 256 256" xml:space="preserve">
<g style="stroke: none; stroke-width: 0; stroke-dasharray: none; stroke-linecap: butt; stroke-linejoin: miter; stroke-miterlimit: 10; fill: none; fill-rule: nonzero; opacity: 1;" transform="translate(1.4065934065934016 1.4065934065934016) scale(2.81 2.81)">
	<path d="M 40.056 90 c -8.459 0 -15.341 -6.882 -15.341 -15.341 V 20.285 C 24.715 9.1 33.815 0 45 0 c 11.186 0 20.285 9.1 20.285 20.285 v 49.927 c 0 1.657 -1.343 3 -3 3 s -3 -1.343 -3 -3 V 20.285 C 59.285 12.408 52.877 6 45 6 s -14.285 6.408 -14.285 14.285 v 54.374 c 0 5.15 4.19 9.341 9.341 9.341 s 9.341 -4.19 9.341 -9.341 v -50.69 c 0 -2.424 -1.973 -4.397 -4.396 -4.397 c -2.424 0 -4.396 1.973 -4.396 4.397 v 46.243 c 0 1.657 -1.343 3 -3 3 s -3 -1.343 -3 -3 V 23.969 c 0 -5.733 4.664 -10.397 10.396 -10.397 s 10.396 4.664 10.396 10.397 v 50.69 C 55.396 83.118 48.515 90 40.056 90 z" style="stroke: none; stroke-width: 1; stroke-dasharray: none; stroke-linecap: butt; stroke-linejoin: miter; stroke-miterlimit: 10; fill: rgb(184,12,9); fill-rule: nonzero; opacity: 1;" transform=" matrix(1 0 0 1 0 0) " stroke-linecap="round"/>
</g>
</svg>